<?xml version="1.0" encoding="UTF-8"?>
<!DOCTYPE svg PUBLIC "-//W3C//DTD SVG 1.1//EN" "http://www.w3.org/Graphics/SVG/1.1/DTD/svg11.dtd">
<!-- Creator: CorelDRAW 2019 (64-Bit) -->
<svg xmlns="http://www.w3.org/2000/svg" xml:space="preserve" width="149.025mm" height="149.026mm" version="1.1" style="shape-rendering:geometricPrecision; text-rendering:geometricPrecision; image-rendering:optimizeQuality; fill-rule:evenodd; clip-rule:evenodd"
viewBox="0 0 148.7822 148.7826"
 xmlns:xlink="http://www.w3.org/1999/xlink"
 xmlns:xodm="http://www.corel.com/coreldraw/odm/2003">
 <defs>
  <style type="text/css">
   <![CDATA[
    .fil2 {fill:#DF1E35}
    .fil0 {fill:#B7B4B3}
    .fil1 {fill:#114D91}
    .fil3 {fill:white}
   ]]>
  </style>
 </defs>
 <g id="Layer_x0020_1">
  <metadata id="CorelCorpID_0Corel-Layer"/>
  <g id="_893436000">
   <path class="fil0" d="M148.7822 74.4073c0,41.0979 -33.3084,74.3752 -74.3749,74.3752 -41.0981,0 -74.4073,-33.3092 -74.4073,-74.3752 0,-41.0659 33.3092,-74.4073 74.3754,-74.4073 41.0984,0 74.4068,33.3095 74.4068,74.4073z"/>
   <path class="fil1" d="M146.6296 74.4073c0,39.8946 -32.3595,72.2538 -72.2542,72.2538 -39.8946,0 -72.2538,-32.3592 -72.2538,-72.2538 0,-39.8951 32.3592,-72.2535 72.2538,-72.2535 39.9266,0 72.2542,32.3266 72.2542,72.2535z"/>
   <path class="fil2" d="M135.9909 74.4073c0,34.0368 -27.578,61.6149 -61.6155,61.6149 -34.0374,0 -61.6155,-27.5781 -61.6155,-61.6149 0,-34.0376 27.5781,-61.6158 61.6155,-61.6158 34.0375,0 61.6155,27.5782 61.6155,61.6158z"/>
   <path class="fil3" d="M74.3754 12.7915c-33.9739,0 -61.6155,27.6418 -61.6155,61.6158 0,33.9737 27.6416,61.6149 61.6155,61.6149 33.9738,0 61.6155,-27.6412 61.6155,-61.6149 0,-33.974 -27.6417,-61.6158 -61.6155,-61.6158zm-58.0373 63.4202l0 0 11.3351 0 0 -3.6408 -11.3351 0c0.0314,-1.3618 0.1268,-2.7231 0.253,-4.0845 4.0213,-20.2327 28.4014,-35.842 57.7843,-35.842 29.3831,0 53.7636,15.6093 57.784,35.842 0.1275,1.3614 0.2221,2.7227 0.2529,4.0845l-11.3349 0 0 3.6408 11.3349 0c-0.0307,1.3618 -0.1254,2.723 -0.2529,4.0844 -4.0204,20.2322 -28.401,35.842 -57.784,35.842 -29.383,0 -53.763,-15.6098 -57.7843,-35.842 -0.1262,-1.3614 -0.1897,-2.7226 -0.253,-4.0844zm58.0373 -59.9055l0 0c24.6019,0 45.6895,15.3882 54.1108,37.0453 -10.321,-14.1216 -30.7122,-23.7789 -54.1108,-23.7789 -23.3986,0 -43.7894,9.6573 -54.1113,23.7789 8.4538,-21.6263 29.5094,-37.0453 54.1113,-37.0453zm0 116.1699l0 0c-24.602,0 -45.6888,-15.388 -54.1113,-37.0452 10.3219,14.1216 30.7128,23.7786 54.1113,23.7786 23.3987,0 43.7898,-9.657 54.1108,-23.7786 -8.4213,21.6572 -29.4776,37.0452 -54.1108,37.0452z"/>
   <path class="fil3" d="M76.8453 63.9269l0.7596 0c0.7284,0.0317 1.963,0.2533 1.963,1.5516 0,0.6331 0.0637,2.5961 0.0637,3.3244l0 0.2847c0,0.0953 0.0631,1.0766 0.0949,1.2351 0.3164,1.1398 1.2032,1.8364 2.5964,1.9631l1.2664 0 0 -6.9657c0,-0.6017 -0.3166,-1.4249 -0.7914,-2.0266l-0.0948 -0.1267c0.6965,-0.7915 0.9813,-1.583 0.9813,-2.7862l0 -0.6648c0,-5.4141 -0.2216,-6.4908 -2.7232,-6.7759l-8.4537 0 0 19.0926 4.3696 0 0 -8.1055 -0.0316 0zm0 -7.9792l0 0 0.855 0c1.1397,0.0317 1.5511,0.0317 1.5511,2.0265 0,1.6148 0,1.7097 -0.0318,2.5011l0 0.1585c0,0.2215 -0.0948,0.4749 -0.253,0.6334 -0.0951,0.0949 -0.2213,0.158 -0.3799,0.158l-1.7414 0 0 -5.4775z"/>
   <polygon class="fil3" points="103.8853,52.9398 99.6421,52.9398 99.6105,72.0324 103.8853,72.0324 "/>
   <path class="fil3" d="M63.1036 72.0641l4.3694 0 0 -16.1478c0.0635,0 0.0953,0 0.1583,0 0.7914,0 1.3932,-0.2533 1.8681,-0.6966 0.7914,-0.8233 0.7284,-2.0897 0.7284,-2.1532l0 -0.1268 -9.9422 0 0 3.008 2.8498 0 0 16.1164 -0.0318 0z"/>
   <path class="fil3" d="M108.951 72.0641l4.3692 0 0 -16.1478c0.0638,0 0.0957,0 0.1583,0 0.7916,0 1.4248,-0.2533 1.8678,-0.6966 0.7915,-0.8233 0.729,-2.0897 0.729,-2.1532l0 -0.1268 -9.9425 0 0 3.008 2.8498 0 0 16.1164 -0.0316 0z"/>
   <polygon class="fil3" points="57.9743,68.9614 53.3829,68.9614 53.3829,64.3383 56.5175,64.3383 56.5175,60.1906 53.3829,60.1906 53.3829,55.8845 57.9743,55.8845 57.9743,52.9398 49.1406,52.9398 49.1406,72.0324 57.9743,72.0324 "/>
   <path class="fil3" d="M43.5992 52.9398l-10.8916 0 0 0.1268c0,0.0317 -0.1268,1.1397 0.5699,1.9947 0.4432,0.5381 1.1396,0.8232 2.0265,0.8865l0 16.0846 8.1056 0c1.8362,0 3.1027,-1.5829 3.1027,-3.8943l0 -8.8655c0,-4.9079 0,-6.2379 -2.913,-6.3327zm-1.5193 16.0216l0 0 -2.4067 0 0 -13.0451c1.488,-0.0636 1.8048,0.0632 1.8362,0.0949 0.5705,0.2215 0.5386,1.2664 0.5386,1.2982 0.158,1.5198 0.0632,10.4804 0.0318,11.652z"/>
   <polygon class="fil3" points="48.3491,95.5892 52.7183,95.5892 52.7183,76.0218 48.3491,76.0218 "/>
   <path class="fil3" d="M65.035 76.0218l-0.1268 0c-1.2347,0 -5.6674,-0.0318 -6.5225,0l-0.2215 0c-1.3296,0 -2.1528,0.633 -2.3432,1.7414 -0.0313,0.1899 -0.0313,0.3166 -0.0313,0.3166 0,0.0317 -0.317,3.7044 0.0632,4.7492 0.5699,1.6784 1.9318,2.3118 3.1982,2.6915 0.0313,0 0.0948,0.0317 0.1267,0.0317 0.0631,0.0317 0.158,0.0317 0.2529,0.0635 0.1268,0.0631 0.2221,0.1262 0.2851,0.2216l0.0318 7.0606 -3.6096 0 0 2.5965 4.7176 0c1.6466,-0.0635 2.7863,-0.7919 3.1982,-2.0265 0.1265,-0.95 0.1265,-7.5038 0.0313,-8.8975 -0.0313,-0.5063 -0.253,-0.9181 -0.7598,-1.2978 -0.1898,-0.1584 -0.4114,-0.2851 -0.6966,-0.4437 -0.2534,-0.1262 -0.5381,-0.2847 -0.7914,-0.4113 -1.0136,-0.5068 -2.1846,-1.0766 -2.1846,-2.3749l0 -1.108 3.4192 0c0.6965,0 1.2664,-0.3483 1.6148,-0.9817 0.2851,-0.5064 0.3483,-0.9813 0.3483,-1.013 0.0317,-0.3165 0,-0.6335 0,-0.8233l0 -0.0949z"/>
   <path class="fil3" d="M84.9505 75.99c-0.9813,0 -1.9946,0.0318 -2.818,0.2535 -2.121,0.5067 -3.166,1.9311 -3.166,4.3692l0 11.6519c0,2.9766 2.1211,3.6095 5.3512,3.6095 3.8942,0 6.1106,-1.3613 6.1106,-3.7674l0 -12.1269c0,-3.9897 -2.5329,-3.9897 -5.4777,-3.9897zm-1.4249 4.433l0 0c0.0318,-0.5069 0.0636,-0.9183 0.1267,-1.2034l0.0637 -0.0631c0.1898,-0.0317 0.38,-0.0317 0.6016,-0.0317l0.0948 0c1.4882,0.0317 1.5198,0.4749 1.5198,3.1346l0 8.1689c0,0.2534 0,0.475 -0.0316,0.7283 0,0.2216 -0.0318,0.4433 -0.0951,0.6648l-0.0948 0.0636c-0.2533,0.0312 -0.5067,0.0632 -0.7918,0.0632 -0.538,0 -0.9182,-0.1268 -1.1398,-0.3483 -0.3483,-0.3482 -0.3483,-0.9499 -0.3483,-1.6465l0 -8.264c0.0949,-0.0313 0.0949,-0.9499 0.0949,-1.2663z"/>
   <path class="fil3" d="M100.5285 84.3175c-2.0896,-7.536 -5.4141,-8.3906 -6.8072,-8.3906 -0.3482,0 -0.5699,0.0631 -0.5699,0.0631l-0.0947 0.0318 0 19.5676 4.4009 0 0 -7.8839 3.0709 7.8839 4.4965 0 0 -19.5676 -4.4645 0 0 8.2956 -0.0319 0z"/>
   <path class="fil3" d="M43.0612 75.99l-10.9871 0.0318 -0.1261 0 0 0.1267c0,0.0317 -0.0953,2.3431 2.4692,2.8812l0 16.5597 4.4964 0 0 -8.3275 3.7994 0c1.9948,0 3.1663,-1.3296 3.1663,-3.6096l0 -0.6966c-0.0317,-5.5408 -0.2533,-6.6806 -2.818,-6.9658zm-1.7733 8.7072l0 0 -2.438 0 0 -5.6992c0,0 1.3301,-0.0314 1.5198,0 0.4751,0.0636 0.9182,0.2533 0.9182,0.8233 0,0.2215 0,4.8759 0,4.8759z"/>
   <path class="fil3" d="M77.6048 76.0218l-10.1951 0 0 3.0715 2.913 0 0 16.5279 4.4958 0 0 -16.5279c0.0637,0 0.0949,0 0.1585,0 0.7916,0 1.425,-0.2534 1.8999,-0.7284 0.8234,-0.8551 0.7598,-2.1532 0.7598,-2.2164l-0.0318 -0.1267z"/>
   <path class="fil3" d="M116.8668 76.0218l-0.1264 0c-1.2346,0 -5.6672,-0.0318 -6.5226,0l-0.2221 0c-1.3297,0 -2.1525,0.633 -2.3429,1.7414 -0.0318,0.1899 -0.0318,0.3166 -0.0318,0.3166 0,0.0317 -0.3164,3.7044 0.0636,4.7492 0.5699,1.6784 1.9313,2.3118 3.1973,2.6915 0.0319,0 0.0956,0.0317 0.1276,0.0317 0.0638,0.0317 0.1582,0.0317 0.2528,0.0635 0.1264,0.0631 0.2221,0.1262 0.2858,0.2216l0.0307 7.0606 -3.6095 0 0 2.5965 4.7178 0c1.6468,-0.0635 2.7868,-0.7919 3.1982,-2.0265 0.1264,-0.95 0.1264,-7.5038 0.0317,-8.8975 -0.0317,-0.5063 -0.2539,-0.9181 -0.7597,-1.2978 -0.1902,-0.1584 -0.4123,-0.2851 -0.697,-0.4437 -0.2528,-0.1262 -0.5388,-0.2847 -0.7915,-0.4113 -1.0136,-0.5068 -2.1845,-1.0766 -2.1845,-2.3749l0 -1.108 3.419 0c0.6972,0 1.2665,-0.3483 1.6151,-0.9817 0.2848,-0.5064 0.3484,-0.9813 0.3484,-1.013 0.0319,-0.3165 0,-0.6335 0,-0.8233l0 -0.0949z"/>
   <path class="fil3" d="M91.8849 52.9398c-0.9815,0 -1.9946,0.0317 -2.818,0.2534 -2.1214,0.5068 -3.1346,1.8999 -3.1346,4.2744l0 11.3984c0,2.913 2.1215,3.5147 5.2876,3.5147 3.8627,0 6.0474,-1.3296 6.0474,-3.6726l0 -11.8735c0.0316,-3.8947 -2.4694,-3.8947 -5.3824,-3.8947zm-1.4249 4.3379l0 0c0.0317,-0.5068 0.0632,-0.8864 0.1267,-1.1716l0.0632 -0.0631c0.1902,-0.0317 0.38,-0.0317 0.6016,-0.0317l0.0948 0c1.4567,0.0317 1.5199,0.4432 1.5199,3.071l0 8.0109c0,0.253 0,0.475 0,0.6967 0,0.2216 -0.0318,0.4433 -0.0948,0.633l-0.0949 0.0636c-0.2534,0.0312 -0.5068,0.0632 -0.7603,0.0632 -0.538,0 -0.918,-0.1268 -1.1396,-0.3483 -0.3483,-0.3482 -0.3483,-0.9182 -0.3483,-1.6148l0 -8.0741c0.0317,-0.0313 0.0317,-0.9495 0.0317,-1.2347z"/>
  </g>
 </g>
</svg>
