<svg xmlns="http://www.w3.org/2000/svg" width="377.985" height="377.985" data-name="miami heat" id="miami-heat"><path fill="#fff" fill-rule="evenodd" d="M0 0h377.985v377.985H0Z" data-name="Path 3582"></path><path fill="#1f2528" fill-rule="evenodd" d="M300.359 104.797c-8.783-9.534-27.851-17.313-52.693-22.08 0-2.759 1.757-4.014 5.018-6.022 1.506-1.255 3.263-2.51 5.271-4.265 7.779-7.526-1.506-19.07-2.006-19.572l-5.018-6.273 1.253 8.03c.755 5.52-1.253 7.526-7.277 11.542a12.479 12.479 0 0 1-2.006 1.757 38.639 38.639 0 0 0-.751-12.8c-1.257-5.269-3.765-7.277-3.765-7.277l-.5 7.528c-.253 0-.755 5.771-8.53 12.8a16.219 16.219 0 0 0 2.006-2.259c3.761-5.52 2.757-11.793 1.253-19.068l-.249-1.506c-1.257-7.528.751-12.3 2.006-13.048 1.506-1.506 4.014-4.265 4.014-4.265s-1.506-.5-5.271 0c-4.769.753-12.8 3.512-12.542 10.036 0 3.01 1 5.771 1.755 8.279 1 2.51 1.757 5.018 1 6.273q-.753 1.506-5.271 2.259c-11.291 2.006-20.072 7.526-24.335 15.054a22.187 22.187 0 0 0-3.014 8.03c-28.1 0-54.948 3.514-75.524 10.036-23.086 7.026-35.883 16.811-36.885 28.1-.753 6.022 2.006 14.552 17.062 22.833h-.245l4.265 2.008 2.259 1.255a147.724 147.724 0 0 0 23.837 7.777 43.1 43.1 0 0 0-8.783 6.273 62.212 62.212 0 0 0-22.582 48.175 61.468 61.468 0 0 0 18.061 43.914 62.3 62.3 0 0 0 105.134-31.363c5.018-15.056 4.516-31.114 4.267-37.387-.5-13.8 6.269-21.327 10.536-24.841 19.823-2.508 37.137-6.775 50.185-12.544l2.006-1 4.515-2.265c10.287-5.771 16.311-12.8 16.813-20.072.502-4.768-1.255-9.536-5.269-14.052Zm-20.325 12.294c1.757 1.757 1.757 3.012 1.757 3.514-.253 2.259-3.01 5.018-7.779 7.526-10.038 5.02-27.1 9.034-47.175 11.04a27.6 27.6 0 0 1 2.761-1.506h.5c5.771-2.51 12.3-5.018 12.546-14.8.249-1.506.249-6.022 1-7.779 1.253-2.257 4.014-5.52 6.273-6.524.249 0-4.018-.753-4.018-.753h-.5a13.209 13.209 0 0 0 3.014-3.512c16.315 3.51 27.602 8.024 31.621 12.794Zm-177.9 2.259c.753-8.029 29.358-18.318 75.781-20.075a26.68 26.68 0 0 0-10.789 17.815l-.5 3.514a20.5 20.5 0 0 1-1.506 6.524c-1.757 4.516-6.775 8.53-12.044 11.291-18.568-2.259-34.375-6.273-43.408-11.04-5.018-2.761-7.777-5.771-7.528-8.03Z" data-name="Path 3583"></path><path fill="#e2983a" fill-rule="evenodd" d="M245.405 82.466c.5-5.52 5.771-6.775 10.793-11.542 6.771-6.273-1.757-16.56-1.757-16.56 1 7.026-2.259 9.534-8.281 13.8-1.757 1.255-3.263 3.012-3.263 5.269-.249 2.761-.5 5.52-1 8.279 1.257.251 2.51.5 3.512.753Zm-18.06-9.787c-1.51 1.255-3.014 2.51-4.267 3.514l-3.01 3.01c5.767.5 11.54 1 16.809 1.757 3.512-6.273 5.271-13.3 3.01-25.592 0 0-.5 8.279-12.542 17.311Zm-32.118 5.269c6.522 0 13.044.251 19.319.753l.755-.753c4.014-4.516 10.789-8.281 14.052-13.3 3.512-5.269 2.255-11.542 1-19.07-2.259-13.048 3.259-15.305 3.259-15.305s-11.038 1.506-10.789 7.779c.253 8.53 9.034 16.56-4.263 19.07-14.551 2.513-23.585 10.538-25.598 20.826Z" data-name="Path 3584"></path><path fill="#1f2528" fill-rule="evenodd" d="m134.502 309.294 7.779-32.62h-13.046l-8.03 32.62Zm28.606-24.592.753 13.3h-6.777l7.026 11.291h11.793l-1.755-32.62h-19.823l-16.058 32.62h12.551Zm-30.361 54.45-2.759 11.038h12.293l8.03-32.367h-12.293l-3.01 12.548h-9.29l3.01-12.548h-12.3L108.4 350.19h12.3l2.759-11.038h9.285Zm29.357 3.765 1-4.52h15.054l2.006-7.024h-15.301l1-4.767h15.307l2.508-8.783h-27.847l-8.028 32.367h27.6l2.006-7.273Zm79.289-33.622 8.03-32.62h-13.305l-8.028 32.62Zm21.829-7.53c1.757 2.512 3.512 7.277-4.516 11.042-9.536 4.267 0 15.056-12.8 15.056h-5.518l-5.27 22.329h-13.044l5.271-22.329h-8.783l2.757-10.038h22.835c13.55 0 4.014-9.532 10.789-10.789 4.767-.753 7.779-1.759 8.279-5.271Zm-164.604-8.283-2.259-16.809H80.305l-8.03 32.62h12.043l4.265-17.064h.249l2.259 17.064h7.027l9.785-17.064h.251l-4.014 17.064h11.294l8.028-32.62h-15.557Zm107.14 0-2.257-16.809h-16.06l-8.023 32.621h12.044l4.265-17.064h.249l2.261 17.064h7.024l9.785-17.064h.253l-4.014 17.064h11.291l8.028-32.62h-15.558ZM203.75 325.6l.755 13.3h-6.775l6.775 11.291h12.042l-1.755-32.367h-19.818s-16.309 32.367-16.058 32.367h12.546Z" data-name="Path 3585"></path><path fill="#aa3e3e" fill-rule="evenodd" d="M96.363 208.676c1.757 8.281 6.273 18.066 15.558 24.588a46.633 46.633 0 0 0 9.283 4.769q-3.209-5.259-6.775-10.287c-4.516-6.526-9.032-13.55-12.044-20.827a43.555 43.555 0 0 1-2.51-23.333 62.6 62.6 0 0 0-3.763 20.825c0 1.254.251 2.759.251 4.265Z" data-name="Path 3586"></path><path fill="#aa3e3e" fill-rule="evenodd" d="M106.399 205.413c2.761 6.775 7.277 13.55 11.542 19.823a104.434 104.434 0 0 1 9.033 14.555 33.5 33.5 0 0 0 8.532 1.253 72.292 72.292 0 0 1-7.777-14.553c-8.532-21.578-7.277-48.175 3.261-63.482 5.52-8.03 12.3-13.3 20.825-18.066 7.277-4.014 11.793-5.018 16.56-7.777 5.018-3.263 7.779-8.281 4.516-19.57a19.908 19.908 0 0 1-1-8.03 25.124 25.124 0 0 0-2.51 8.03c-.5 3.01-.753 6.524-2.006 10.287-4.52 11.791-26.351 18.314-29.109 19.068a54.66 54.66 0 0 0-20.074 10.79c-14.8 13.3-17.564 33.118-11.793 47.673Z" data-name="Path 3587"></path><path fill="#aa3e3e" fill-rule="evenodd" d="M196.979 99.027a7.273 7.273 0 0 1 .5 2.259c.755 4.014-.5 7.528-5.518 8.281-5.269.753-7.026-3.763-7.528-7.277 0-1.506.251-2.51.251-3.263-.753 0-1.757.251-2.508.251a17.909 17.909 0 0 0-6.022 4.518c-1 2.257-2.259 5.269-.251 12.544 3.263 12.546 1.757 20.323-8.279 24.59-13.048 5.771-21.327 9.032-32.618 23.082-5.269 6.524-8.281 17.564-8.532 28.857a79.757 79.757 0 0 0 5.52 31.865 74.23 74.23 0 0 0 9.032 16.56 76.694 76.694 0 0 0 10.538-1.506 25.594 25.594 0 0 1-6.52-16.31c-1.255-20.574 9.785-29.1 26.847-42.906l7.526-6.524c30.612-25.843 21.576-52.191 25.092-74.773-2.508 0-5.022 0-7.53-.248Z" data-name="Path 3588"></path><path fill="#aa3e3e" fill-rule="evenodd" d="M209.278 99.528a85.754 85.754 0 0 0-1.51 14.052c-1.253 19.57-.751 41.9-25.592 63.982l-7.528 6.022c-16.56 13.3-26.094 21.58-25.341 39.647a21.911 21.911 0 0 0 7.026 15.305 62.993 62.993 0 0 0 13.55-5.771c21.578-12.3 35.13-30.608 40.4-54.2 3.263-14.805 3.263-26.847 3.014-36.634 0-4.767.751-14.554.751-14.554.755-6.02 1.757-14.552 8.783-25.592.253-.5.253-.753.5-1.255-4.272-.249-9.037-.757-14.053-1.002Z" data-name="Path 3589"></path><path fill="#aa3e3e" fill-rule="evenodd" d="M216.552 162.508c-.751 3.763-.751 7.528-1.253 11.542a27.71 27.71 0 0 0-.5 4.265 2.711 2.711 0 0 0-.253 1.255c-5.518 24.839-19.57 43.91-42.406 56.958a55.013 55.013 0 0 1-11.793 5.271c6.775 4.516 14.554 5.767 19.821 5.018 20.327-3.01 30.361-16.307 35.13-30.612 4.769-14.554 4.267-30.108 4.014-36.382-.751-21.578 15.807-29.608 15.807-29.608-12.796-.755-17.063 5.016-18.567 12.293Z" data-name="Path 3590"></path><path fill="#aa3e3e" fill-rule="evenodd" d="M203.003 242.048a40.225 40.225 0 0 1-21.329 9.034 33.467 33.467 0 0 1-26.1-7.277l-.249-.253a56.787 56.787 0 0 1-10.791 1.757c8.281 9.03 19.07 13.8 33.622 14.8a59.353 59.353 0 0 0 25.09-18.315l-.247.251Zm-75.777 14.8a33.5 33.5 0 0 0-3.263-13.546 56.8 56.8 0 0 1-14.552-6.268 35.126 35.126 0 0 1-7.026-6.522 58.675 58.675 0 0 0 24.841 26.341Zm41.4 6.275c-8.03-2.006-15.054-4.769-21.076-9.532a51.369 51.369 0 0 1-8.532-8.032 43.074 43.074 0 0 1-9.785-1c1.757 4.769 2.759 9.536 2.006 14.3a60.094 60.094 0 0 0 25.09 5.522 68.409 68.409 0 0 0 12.546-1.257 2.141 2.141 0 0 1-.249 0Zm70.008-147.537c-1.51 4.516-6.024 4.014-7.53 1.506-2.006-4.014-1.253-7.026 1-9.283 2.259-2.006 5.771-3.261 9.283-4.767-4.014-.753-8.281-1.255-12.8-1.757h-.253c-.5.5-.751 1-1.253 1.506-7.277 10.789-8.032 19.068-8.783 25.09l-.253 2.006a61.175 61.175 0 0 0-.249 12.044v2.003a33.382 33.382 0 0 0-.253 5.02c0-.753.253-1 .253-.5 2.006-6.524 5.771-10.538 11.042-12.8 5.767-2.257 11.291-4.516 11.54-12.8.253-3.514.5-7.026 1.257-8.783a7.274 7.274 0 0 1 4.014-4.014c-2.761-.251-5.771 1-7.024 5.52Z" data-name="Path 3591"></path><path fill="#fff" fill-rule="evenodd" d="M195.227 81.211c-60.974-.5-111.91 15.305-113.665 35.128-.753 8.03 6.522 15.558 19.321 21.578 7.777 3.763 17.813 7.026 29.357 9.534q3.578-1.423 7.275-2.51c2.008-.753 5.771-2.006 10.038-3.763-17.061-2.509-30.862-6.273-39.393-10.787-6.273-3.514-9.785-7.275-9.283-11.291 1-13.55 43.659-23.837 95.1-23.335s92.337 11.793 91.084 25.09c-.253 3.763-3.765 7.275-9.536 10.287-10.789 5.52-29.61 10.038-52.693 12.044-.751 1-1.506 2.257-2.255 3.514 10.536-4.014 22.582 2.006 22.582 2.006a3.881 3.881 0 0 1 1.506.753c15.305-2.761 28.353-6.775 38.139-11.293 11.793-5.769 18.817-12.3 19.57-19.57 1.75-20.072-46.431-36.632-107.147-37.385Z" data-name="Path 3592"></path></svg>