<?xml version="1.0" encoding="UTF-8"?>
<!DOCTYPE svg PUBLIC "-//W3C//DTD SVG 1.1//EN" "http://www.w3.org/Graphics/SVG/1.1/DTD/svg11.dtd">
<!-- Creator: CorelDRAW 2019 (64-Bit) -->
<svg xmlns="http://www.w3.org/2000/svg" xml:space="preserve" width="183.902mm" height="169.404mm" version="1.1" style="shape-rendering:geometricPrecision; text-rendering:geometricPrecision; image-rendering:optimizeQuality; fill-rule:evenodd; clip-rule:evenodd"
viewBox="0 0 183.9016 169.4041"
 xmlns:xlink="http://www.w3.org/1999/xlink"
 xmlns:xodm="http://www.corel.com/coreldraw/odm/2003">
 <defs>
  <style type="text/css">
   <![CDATA[
    .fil0 {fill:#002D61}
    .fil1 {fill:#0079C1}
    .fil2 {fill:#F05033}
    .fil4 {fill:#FDBA2F}
    .fil3 {fill:white}
   ]]>
  </style>
 </defs>
 <g id="Layer_x0020_1">
  <metadata id="CorelCorpID_0Corel-Layer"/>
  <g id="_751785392">
   <path class="fil0" d="M29.8003 71.0549l5.1901 -2.5058 -22.0145 -45.1923 5.1907 -2.5951 -2.5057 -5.1007 -15.6609 7.6064 2.5057 5.1901 5.1904 -2.595 22.1042 45.1924zm11.5442 -5.6377l0 0 -17.361 -53.3359 5.5483 -1.7904 7.8751 23.8944 5.5484 -1.7905 -7.7858 -23.8931 5.5484 -1.7893 17.2716 53.3355 -5.5482 1.7895 -7.7858 -23.8936 -5.5485 1.7892 7.7858 23.8943 -5.5483 1.7899zm29.1737 -64.3431l0 0 -5.7276 0.8952 7.8751 49.577 -5.7275 0.8949 -7.8751 -49.5779 -5.7268 0.8952 7.5168 47.1612c0.7414,4.7447 5.1887,7.9903 9.9333,7.2486 4.7448,-0.7414 7.99,-5.1887 7.2485,-9.933l-7.5167 -47.1612zm12.26 54.9465l0 0 5.8169 0.0897 0.2682 -16.1972c0.1793,-4.9232 -0.179,-14.9459 -0.4475,-19.5983l0.1793 0c1.5214,12.5283 4.2955,24.1616 6.085,35.9742l5.5483 0.0898 0.9847 -56.0199 -5.8172 -0.1801 -0.2683 16.2868c-0.1792,4.9219 0.179,14.8552 0.4474,19.5983l-0.1791 0c-1.5211,-12.5283 -4.2951,-24.1626 -6.0851,-35.9745l-5.5483 -0.0894 -0.9843 56.0206zm21.7459 0.3582l0 0 11.4546 1.7895c1.509,0.2614 3.059,-0.0939 4.3042,-0.9853 1.2446,-0.8915 2.0797,-2.2449 2.3181,-3.7575l6.9807 -43.8498c0.4699,-3.1762 -1.6717,-6.1505 -4.8331,-6.7124l-11.5442 -1.7892 -8.6803 55.3047zm13.6027 -48.5936l0 0 5.727 0.8952 -6.9803 43.8501 -5.7273 -0.895 6.9806 -43.8503zm40.8076 4.4749l0 0 -1.7905 5.5477 -11.0073 -3.5784 -5.9959 18.3455 8.2334 2.6845 -1.7893 5.4583 -8.2334 -2.6845 -5.996 18.3456 11.0967 3.5793 -1.7903 5.5485 -11.0061 -3.5795c-1.4955,-0.4399 -2.7457,-1.4746 -3.4561,-2.862 -0.7105,-1.3873 -0.8201,-3.0056 -0.3028,-4.4763l13.6922 -42.1499c0.4392,-1.4954 1.4738,-2.7445 2.8606,-3.4558 1.3883,-0.7101 3.0062,-0.8199 4.4776,-0.3027l11.0072 3.5797zm-14.7658 54.4098l0 0 5.2796 2.5058 11.0072 -22.641 1.6999 0.8057 -6.1749 25.057 5.1915 2.5058 6.2642 -24.8785c2.2373,1.0741 4.2949,0.0898 5.4582,-2.3267l9.0393 -18.6134c0.6985,-1.3857 0.8085,-2.9935 0.3027,-4.4609 -0.5058,-1.4661 -1.5836,-2.6653 -2.9885,-3.3256l-10.4696 -5.1007 -24.6096 50.4725zm27.2941 -42.5967l0 0 5.2796 2.5057 -8.5017 17.45 -5.2796 -2.5948 8.5017 -17.3609z"/>
   <path class="fil1" d="M10.2911 169.4041c11.2888,-9.9593 23.3813,-18.9689 36.1542,-26.9363 2.5059,-1.2531 5.0111,-2.5058 7.517,-3.7584 0.9847,-0.4474 3.0425,-1.4322 5.5482,-2.6849 1.7901,1.969 3.4901,3.8483 5.3693,5.6377 -19.0611,8.8599 -37.3171,18.1667 -54.5887,27.7419zm135.9349 -67.9225l0 0c12.4109,-2.7792 25.0004,-4.6928 37.6756,-5.7275 -13.513,4.1167 -27.2941,8.6803 -41.1658,13.7817 1.2527,-2.5956 2.3267,-5.2799 3.4902,-8.0542z"/>
   <path class="fil2" d="M0.895 131.7289c13.143,-8.2464 26.9411,-15.3995 41.2546,-21.388 0.4475,0.9843 0.9843,1.9691 1.5216,2.9533 -0.8057,1.6108 -1.6109,3.311 -2.4166,4.9218 -13.8709,4.2958 -27.3837,8.7701 -40.3596,13.5129zm150.6118 -46.0872l0 0c10.7684,-0.4381 21.5536,-0.2889 32.3055,0.4475 -11.1861,1.6108 -22.5524,3.4006 -34.096,5.5483 0.627,-1.9685 1.2528,-3.9375 1.7905,-5.9958z"/>
   <path class="fil3" d="M92.3533 67.8332c21.0301,0 37.4965,4.9223 56.1996,14.2291 -9.1275,34.2745 -25.8625,57.4524 -56.1996,76.1558 -11.3651,-7.07 -21.1194,-14.9451 -29.1735,-23.8937 3.5799,-1.7007 7.6066,-3.6692 11.1861,-5.28 1.5215,0.0893 2.8639,0.1791 4.2063,0.1791 0.0076,1.6672 -0.6346,3.2721 -1.7898,4.4744 0.6266,0.7158 1.1634,1.3423 1.7898,1.969 1.6109,-1.4323 2.5952,-3.4906 2.6845,-6.4434 3.5518,-0.0035 7.0929,-0.3937 10.5599,-1.1634 -0.0893,5.4586 -0.8949,9.3961 -2.4164,11.0071 -0.0494,-0.0011 -0.0903,0.0398 -0.0894,0.0898 -0.3332,0.3541 -0.6919,0.6828 -1.0741,0.9842 1.5216,-0.2684 3.0431,-0.6265 4.385,-0.9842 1.8797,-3.8483 1.8797,-10.5601 1.8797,-11.7234 3.4901,-0.895 6.5326,-1.79 9.307,-2.685 0.0891,3.1325 1.4317,6.0858 3.8477,7.2491 1.074,-0.8056 2.0582,-1.6108 3.1324,-2.4165 -0.6267,0.0897 -4.3851,0.3582 -4.2959,-5.7274 8.0543,-3.132 13.3343,-6.7118 17.9876,-12.2602 1.2342,-2.7931 2.1937,-5.7005 2.8641,-8.6802 -5.5484,8.77 -10.56,13.8709 -20.5827,17.8977 0.3671,-2.157 0.9059,-4.2817 1.6109,-6.3535 2.9527,-1.2526 5.9952,-2.6849 7.7853,-3.4901l4.385 -4.5641c1.1632,-4.206 2.1476,-8.4118 3.2216,-12.7076l-3.4009 1.0741 4.0276 -4.2059c0.8948,-3.3115 1.6999,-6.6224 2.5057,-9.9334 -1.9691,0.2684 -4.0273,0.6261 -5.9958,0.895 0.3575,-1.7006 0.5368,-3.3114 0.7158,-4.9223 -0.9843,-0.1791 -1.969,-0.5368 -2.9534,-0.6261 -0.2219,2.0499 -0.5806,4.0828 -1.074,6.0851l-0.2684 0.0894c-1.988,0.2979 -3.8671,1.099 -5.4586,2.3266l0.5368 -1.6108c-3.2216,0.5373 -6.4433,1.1634 -9.6648,1.79l-3.2219 3.4007 0.0899 -0.3582 1.0735 -2.6845c-3.1319,0.716 -6.3536,1.342 -9.5751,2.0579 -0.6265,-4.2951 -1.3425,-8.1434 -1.8792,-11.2752l-2.6849 0.2683c0.5369,3.2217 1.2531,7.1593 1.969,11.5442l-2.2375 0.5368 -2.8635 3.0425c-1.969,-2.1476 -6.0856,-0.8052 -8.6807,-0.179 -2.7742,0.7163 -5.5483,1.5215 -8.3227,2.2373 -0.82,0.1851 -1.6271,0.424 -2.4158,0.7159 -2.1492,-2.9792 -4.0638,-6.1211 -5.7275,-9.3961l-0.2685 -0.6265c-0.8055,0.3577 -1.6107,0.6265 -2.5057,1.0739l0.3576 0.716c1.5925,3.2301 3.4169,6.3405 5.4592,9.3068 -3.093,1.3454 -5.8676,3.3273 -8.1436,5.8168 0,0 -3.9375,4.0268 -4.3851,4.564 -0.9737,1.1424 -1.8427,2.3702 -2.595,3.6691 -4.2428,-8.6293 -7.5428,-17.6901 -9.844,-27.0259 18.5244,-9.3068 34.9903,-14.2291 56.0204,-14.2291zm2.0585 51.9936l0 0c0.0896,1.7002 0.0896,3.2218 0.179,4.9218 3.49,-0.8948 6.6223,-1.8791 9.3067,-2.8633 0.2534,-2.0883 0.6725,-4.1531 1.2531,-6.175 -0.8679,0.3307 -1.7672,0.5707 -2.6847,0.7158 -0.4497,0.015 -0.8991,-0.015 -1.3425,-0.0893l-0.895 0.9843c-1.9685,0.8057 -3.8476,1.7001 -5.8166,2.5057zm-13.4236 6.0853l0 0 0.0899 0.6265c3.6164,0.0071 7.221,-0.4135 10.7385,-1.2527l0 -4.2956 -1.5215 0.7158c-0.7159,-1.3425 -1.0735,-1.8793 -1.7,-3.2216l-1.0743 2.7741 -4.6532 3.7585 -1.8794 0.895z"/>
   <path class="fil2" d="M103.7185 74.9032c4.396,-0.0345 8.7896,0.2049 13.155,0.7158 3.2951,0.6561 6.5517,1.4927 9.7544,2.5058 1.2692,4.4219 1.9015,9.002 1.8797,13.6025 -0.0038,3.7928 -0.4239,7.5743 -1.253,11.2753 -5.5486,8.7701 -10.6493,13.7817 -20.5827,17.8085 0.3674,-2.157 0.9062,-4.2817 1.6107,-6.3535 2.9533,-1.2526 5.9067,-2.6849 7.7858,-3.4008l4.3851 -4.5641c1.0734,-4.2953 2.1475,-8.5011 3.2215,-12.7071l-3.4007 1.0735 4.0267 -4.2059c0.8059,-3.3109 1.7009,-6.6223 2.5061,-9.9332 -1.9686,0.2683 -4.027,0.6265 -5.9961,0.8948 0.2685,-1.7 0.5374,-3.3108 0.7159,-4.9218 -0.9841,-0.2688 -1.9685,-0.5372 -2.9526,-0.7158 -0.2217,2.0793 -0.5803,4.142 -1.074,6.1745l-0.2685 0.0898c-2.0374,0.2159 -3.9665,1.0246 -5.5484,2.3266l0.6265 -1.6108c-3.3114,0.5368 -6.4433,1.1634 -9.7548,1.7895l-3.1318 3.3114 0.0892 -0.2685 1.0741 -2.6848c-3.2217,0.7158 -6.354,1.3424 -9.5755,2.0583 -0.6263,-4.3849 -1.3421,-8.2332 -1.8794,-11.365 4.8375,-0.6212 9.7104,-0.92 14.5868,-0.895zm20.6726 36.7802l0 0c-4.6536,5.4586 -9.9337,9.1277 -17.9877,12.2602 -0.0893,6.0851 3.7584,5.8167 4.3851,5.7273 5.8455,-4.8813 10.4981,-11.0338 13.6026,-17.9875zm-16.8245 20.4036l0 0c-4.5291,3.2342 -9.5861,5.6566 -14.9449,7.1592 1.7901,-3.8482 1.8797,-10.56 1.8797,-11.7233 3.4004,-0.895 6.443,-1.7895 9.307,-2.6843 0.0891,3.1317 1.3422,6.1743 3.7582,7.2484zm-19.3299 8.1435l0 0c-1.521,0.2684 -3.1317,0.4475 -4.6533,0.6265 -1.7002,-1.7 -3.4003,-3.49 -5.0112,-5.1901 1.6109,-1.4323 2.5952,-3.4906 2.6845,-6.4434 3.5518,-0.0035 7.0929,-0.3937 10.5599,-1.1634 -0.0893,5.4586 -0.8949,9.3961 -2.4164,11.0071 -0.0494,-0.0011 -0.0903,0.0398 -0.0894,0.0898 -0.4475,0.4475 -0.8051,0.805 -1.0741,1.0735zm-11.4543 -6.5326l0 0c1.1199,-1.2247 1.7561,-2.8151 1.7898,-4.4744 -1.3424,0 -2.6848,-0.0898 -4.2063,-0.1791l-0.9842 0.4475c1.0739,1.4317 2.2372,2.8635 3.4007,4.206zm-21.2986 -35.2588l0 0c-1.5431,-3.8363 -2.887,-7.7489 -4.0274,-11.7234 1.2531,-0.6265 2.5059,-1.1634 3.8484,-1.7002l0.2682 0.716c1.6233,3.2315 3.4777,6.342 5.5485,9.3068 -2.0355,0.8516 -3.9351,1.9968 -5.6377,3.4008zm2.2374 -14.4975l0 0 0.4471 0.6265c1.6331,3.273 3.518,6.4149 5.638,9.3961 0.7888,-0.2919 1.5959,-0.5308 2.416,-0.7159 2.7743,-0.7158 5.5485,-1.521 8.3226,-2.2373 2.5059,-0.6262 6.6225,-1.9686 8.6808,0.179l2.7741 -3.0425 2.2369 -0.5368c-0.626,-4.3849 -1.3419,-8.3225 -1.8791,-11.5442 -9.8362,1.4228 -19.4558,4.0683 -28.6364,7.8751zm36.6906 35.8852l0 0c0.0896,1.7002 0.0896,3.2218 0.0896,4.9218 3.5794,-0.8944 6.622,-1.8791 9.3961,-2.8633 0.21,-2.0954 0.6297,-4.1636 1.2531,-6.175 -0.8715,0.3202 -1.7698,0.5597 -2.6847,0.7158 -0.4497,0.015 -0.8991,-0.015 -1.3425,-0.0893l-0.895 0.9843c-1.9685,0.8057 -3.8476,1.7007 -5.8166,2.5057zm-13.4236 6.0853l0 0 0.0899 0.7158c3.6137,-0.0369 7.2131,-0.457 10.7385,-1.2526l0 -4.2953 -1.5215 0.6261c-0.7159,-1.3425 -1.0735,-1.8793 -1.7,-3.2216l-1.0743 2.7741 -4.6532 3.759 -1.8794 0.8945z"/>
   <path class="fil4" d="M93.3381 152.4906c-8.8643,-5.9515 -16.8736,-13.0873 -23.8043,-21.2087l3.8479 -1.79c1.1632,1.4317 2.3266,2.8635 3.4899,4.206 0.5494,0.6978 1.1475,1.3559 1.7899,1.969 5.115,5.6501 10.7811,10.7764 16.9135,15.3027 -0.7174,0.5472 -1.4642,1.0551 -2.2369,1.521zm-42.2393 -49.8457l0 0c-2.6166,-5.7658 -4.8001,-11.7187 -6.5326,-17.8084 15.2886,-7.2914 31.9297,-11.3148 48.8611,-11.8126 7.8787,0.0668 15.7318,0.906 23.4462,2.5058 -4.3695,-0.4644 -8.7604,-0.7034 -13.155,-0.7163 -4.9063,-0.0219 -9.8087,0.2769 -14.6759,0.8949 -0.895,0.0899 -1.79,0.2684 -2.685,0.3582 -9.8327,1.3923 -19.4527,4.0074 -28.6364,7.7858 -0.8057,0.3577 -1.7007,0.7158 -2.5057,1.0734 -1.2532,0.5368 -2.506,1.1635 -3.7591,1.79 1.0836,3.981 2.3985,7.8955 3.9376,11.7234 -0.8052,0.7158 -1.7001,1.521 -2.5052,2.3266l-1.79 1.8792z"/>
   <path class="fil0" d="M31.7688 80.004c20.1351,-10.2916 37.765,-16.0186 60.6743,-16.0186 22.8197,0 40.5394,5.727 60.6741,16.0186 -9.3968,37.6753 -27.2945,62.7323 -60.7639,82.7782 -12.6177,-7.6068 -23.6251,-16.4661 -32.7527,-26.7577 -2.5061,1.2527 -4.5643,2.2375 -5.6383,2.7742 -3.1319,1.6108 -6.2644,3.1324 -9.3961,4.7433 -3.5798,1.7893 -7.5174,4.5636 -11.6342,3.49 -4.4742,-1.969 -1.521,-7.4275 -0.1785,-10.4707 3.49,-7.7852 7.1591,-15.571 10.9177,-23.2671 -4.6968,-8.787 -8.2458,-18.1407 -10.5599,-27.8317l-1.3425 -5.4585zm60.5845 -12.1708l0 0c-21.0301,0 -37.496,4.9223 -56.1995,14.2291 2.2458,9.3117 5.5174,18.3458 9.7544,26.9362 0.7845,-1.3 1.683,-2.5278 2.6847,-3.6691 0.4475,-0.4475 4.2959,-4.5637 4.2959,-4.5637 2.3152,-2.4844 5.1177,-4.4644 8.2327,-5.8172 -2.0904,-2.9519 -3.9455,-6.0638 -5.5485,-9.3068l-0.2682 -0.716c0.8056,-0.3576 1.6107,-0.7157 2.5057,-1.0734l0.2684 0.626c1.6329,3.3025 3.5174,6.4738 5.6377,9.4859 0.8057,-0.2684 1.6107,-0.5368 2.5057,-0.8051 2.7743,-0.716 5.4591,-1.4318 8.3226,-2.1481 2.5059,-0.716 6.6225,-2.0579 8.5911,0.0897l2.8638 -3.0425 2.2369 -0.4475c-0.7159,-4.4747 -1.3419,-8.4123 -1.9685,-11.5442 0.895,-0.0898 1.7901,-0.2683 2.685,-0.3582 0.5366,3.1324 1.2526,7.07 1.8791,11.2757 3.2216,-0.6265 6.3535,-1.3423 9.5752,-1.9685l-1.0741 2.6845 -0.0892 0.2683 3.2217 -3.4002c3.2216,-0.5372 6.3535,-1.1633 9.6649,-1.7898l-0.5371 1.7c1.5743,-1.2735 3.4575,-2.1077 5.459,-2.416l0.2683 0c0.5203,-2.0313 0.9089,-4.0936 1.1634,-6.1748 0.9844,0.179 1.9691,0.4474 2.864,0.6265 -0.1009,1.6577 -0.3403,3.304 -0.7159,4.9218 2.0579,-0.2685 4.0269,-0.5368 6.0851,-0.895 -0.8949,3.3115 -1.7006,6.7117 -2.5057,10.0232l-4.0269 4.2059 3.4003 -1.0741c-1.1633,4.206 -2.2369,8.4118 -3.2218,12.7076l-4.3848 4.5641c-1.8793,0.8052 -4.922,2.237 -7.7854,3.4003 -0.6945,2.0752 -1.2327,4.1989 -1.6108,6.354 9.9334,-4.0273 15.0343,-9.1282 20.5826,-17.8084 -0.7142,2.9782 -1.7031,5.8841 -2.9532,8.6802 -4.6535,5.4591 -9.8442,9.1282 -17.9875,12.1708 -0.0894,6.175 3.8481,5.906 4.3849,5.7275 -0.9962,0.9039 -2.0749,1.7126 -3.2217,2.416 -2.416,-1.0735 -3.6691,-4.1166 -3.7585,-7.2485 -2.7741,0.9842 -5.8167,1.79 -9.3068,2.6844 -0.0897,1.1633 -0.0897,7.8751 -1.8792,11.7234 -1.4435,0.4035 -2.9073,0.7323 -4.3848,0.9842 0.3501,-0.3048 0.6789,-0.634 0.9843,-0.9842l0.0891 -0.0894c1.611,-1.6108 2.3269,-5.5484 2.5058,-11.0075 -3.4729,0.7469 -7.0086,1.1664 -10.5594,1.2532 -0.0899,2.9528 -1.074,5.0111 -2.6849,6.3535 -0.6266,-0.6265 -1.1634,-1.2526 -1.7899,-1.8791 1.076,-1.2447 1.6782,-2.8292 1.7007,-4.4744 -1.2532,-0.0898 -2.6851,-0.1791 -4.1167,-0.2689 -3.58,1.7006 -7.6965,3.6691 -11.276,5.28 8.5586,9.3263 18.4142,17.373 29.2629,23.8941 30.3375,-18.7034 46.9832,-41.7919 56.1105,-76.1561 -18.4349,-9.2171 -34.9013,-14.1394 -55.9314,-14.1394zm2.0585 51.9936l0 0c0.0896,1.7002 0.0896,3.2218 0.0896,4.8326 3.5794,-0.895 6.622,-1.7899 9.3961,-2.7741 0.2176,-2.1232 0.6372,-4.221 1.2531,-6.2643 -0.8715,0.3198 -1.7698,0.5597 -2.6847,0.7158 -0.4431,0.0903 -0.8996,0.0903 -1.3425,0l-0.895 0.895c-1.9685,0.895 -3.8476,1.79 -5.8166,2.595zm-13.4236 6.0853l0 0 0.0899 0.6265c3.6164,0.0071 7.221,-0.4135 10.7385,-1.2527l0 -4.2956 -1.5215 0.7158c-0.7159,-1.3425 -0.9843,-1.8793 -1.7,-3.2216l-1.0743 2.7741 -4.6532 3.7585 -1.8794 0.895z"/>
   <path class="fil3" d="M66.4908 94.7699c-4.7427,1.3424 -8.9488,3.311 -12.3494,7.0694 -1.8494,2.2439 -3.4127,4.7088 -4.6535,7.3384 -3.7585,7.7856 -7.4276,15.5709 -10.9177,23.3567 -0.8948,2.0583 -3.6692,6.9803 -0.7158,8.3226 3.311,0.8052 7.4276,-1.969 10.291,-3.4008 3.1325,-1.6108 6.3541,-3.2216 9.4861,-4.7426 5.3691,-2.6849 10.2017,-5.9065 13.5132,-11.0968 1.2007,-2.2663 2.2758,-4.5965 3.2212,-6.9801 2.0582,-5.1009 4.1166,-10.1125 6.2647,-15.1241 0.8051,-1.9685 2.237,-4.2953 1.7894,-6.3535 -0.895,-2.7743 -5.6376,-1.0741 -7.6066,-0.5368 -2.7742,0.7158 -5.5485,1.4317 -8.3226,2.1476zm-5.9954 28.9052l0 0c-2.5059,1.1635 -4.9224,2.237 -7.4281,3.4003 3.5797,-8.3226 7.3382,-16.6452 11.2758,-24.9678 2.1477,-0.626 4.3851,-1.4317 6.6226,-2.0577 -3.6694,7.8751 -7.1594,15.7501 -10.4703,23.6252zm42.8655 -37.5859l0 0c2.1475,-0.3577 4.2952,-0.716 6.4433,-1.0737 -0.5374,1.7002 -1.0741,3.4003 -1.7007,5.101 -0.7159,0.1785 -1.521,0.2683 -2.2369,0.4475 -2.5956,3.8478 -5.1907,7.7853 -7.7858,11.7228 1.4317,3.2216 2.8636,6.4434 4.2957,9.6649 -2.3266,0.9843 -4.654,2.0583 -6.9806,3.0428 -1.5211,-3.0428 -3.0426,-6.0853 -4.5636,-9.2176 -1.7006,4.564 -3.3115,9.0384 -4.9222,13.6025 -3.5794,1.6109 -7.2486,3.3109 -10.8278,5.0116 1.0735,-2.7742 2.1475,-5.6382 3.3109,-8.4123 2.6849,-6.8905 5.459,-13.6919 8.2328,-20.4929 -0.7568,0.167 -1.5037,0.3761 -2.2369,0.6265 0.895,-2.2374 1.79,-4.385 2.7741,-6.5331 3.4901,-0.8052 7.1591,-1.6109 10.7386,-2.3267 -1.611,4.206 -3.2217,8.4123 -4.8326,12.5284 3.4007,-4.5636 6.8016,-9.1277 10.2917,-13.6917zm13.9601 -2.3267l0 0c-1.935,0.2599 -3.7455,1.1024 -5.1902,2.4164 -1.085,1.2751 -1.8791,2.7717 -2.3266,4.3851 -1.5216,4.832 -3.0426,9.6644 -4.6536,14.4969 -0.6265,1.8793 -1.6107,5.3693 1.4319,5.1908 1.0566,-0.223 2.0797,-0.5842 3.0427,-1.074 3.1318,-1.3425 6.2641,-2.5952 9.3966,-3.8483 0.7157,-3.0426 1.521,-6.0853 2.3266,-9.1278 -1.6109,0.4475 -3.2216,0.9843 -4.9223,1.521 -0.4474,1.4323 -0.8052,2.7742 -1.1633,4.2065 -1.1634,0.3577 -2.3269,0.8052 -3.4004,1.1633 1.4319,-4.9223 2.7743,-9.7548 4.2954,-14.6766 0.9841,-0.2683 1.969,-0.4475 2.9532,-0.7158 -0.1856,0.879 -0.4246,1.7455 -0.716,2.595 1.5212,-0.3577 2.9534,-0.7158 4.4745,-1.0735 0.5372,-2.1481 1.074,-4.385 1.6107,-6.6224 -2.3267,0.3582 -4.7427,0.8057 -7.1592,1.1634z"/>
   <path class="fil1" d="M130.3874 79.1984c1.4318,0.5373 2.8634,0.9847 4.2949,1.5216 3.401,1.3423 6.4431,2.5951 9.0381,3.8481 -7.5578,26.3965 -23.9146,49.4161 -46.3555,65.238l-1.7899 1.2527c-3.6851,-2.7502 -7.2109,-5.7079 -10.5594,-8.8593l3.132 -0.4475c13.1655,-2.2329 24.9126,-9.5847 32.676,-20.45 7.7632,-10.8653 10.9112,-24.3606 8.7581,-37.5395 -0.0895,-0.3577 -0.1802,-0.7159 -0.2683,-1.0735l-0.0893 -0.3582 -0.0907 -0.0893 -0.3576 -1.2532 -0.0895 -0.1791 -0.0892 -0.3577 -0.0895 -0.0897 0 -0.1787c-0.0957,-0.5217 -0.2451,-1.0316 -0.4469,-1.5216 0.784,0.1393 1.5605,0.3184 2.3267,0.5369zm0.2683 0.3581l0 0c1.3422,0.4475 2.7739,0.9843 4.1161,1.4318 -1.3422,-0.4475 -2.7739,-0.9843 -4.1161,-1.4318z"/>
  </g>
 </g>
</svg>
